<?xml version="1.0" encoding="UTF-8"?>
<svg id="Layer_1" data-name="Layer 1" xmlns="http://www.w3.org/2000/svg" viewBox="0 0 910.77 243.69">
  <defs>
    <style>
      .cls-1, .cls-2, .cls-3 {
        fill: #fff;
      }

      .cls-2 {
        font-family: Manrope-Medium, Manrope;
        font-size: 34.34px;
        font-weight: 500;
      }

      .cls-4 {
        fill: #f47c35;
      }

      .cls-3 {
        font-family: Righteous-Regular, Righteous;
        font-size: 99.64px;
      }

      .cls-5 {
        fill: #086575;
      }
    </style>
  </defs>
  <g>
    <rect class="cls-1" width="243.69" height="243.69" rx="23.75" ry="23.75"/>
    <g>
      <g>
        <path class="cls-5" d="M28.94,88.46v12.27c-2.77.36-4.86,1.9-4.86,3.74,0,1.5,1.38,2.79,3.37,3.42-.27.47-.43,1.01-.43,1.59v5.57c0,1.14.61,2.14,1.52,2.7l-5.01,35.38,2.13.6,5.34,1.99,2.29-2.44h3.05l-4.58-35.52c.93-.55,1.55-1.56,1.55-2.71v-5.57c0-.58-.16-1.12-.43-1.59,2-.63,3.37-1.93,3.37-3.42,0-1.78-1.93-3.27-4.55-3.69v-12.33h-2.76Z"/>
        <path class="cls-5" d="M203.22,32.03c-32.02-5.26-64.03-10.62-96.09-15.61-3.03-.47-7.02.53-9.54,2.36C69.35,39.38,10.67,83.17,8.27,85.12c7.47,1.32,32.39,5.27,41.48,6.7,7.57-17.37,22.99-30.86,40.73-37.52,0,0,.01,0,.02,0,0,0,0,0,0,0,0,0,0,0,0,0-4.97,2.7-9.93,5.48-14.26,9.12-10.22,8.06-18.26,19.49-21.92,32.06l15.5,22.4c3.45-23.67,21.28-43.82,46.07-49.09,18.26-3.85,36.31,1.18,49.65,12.24l26.05-27.01,19.9-20.63c-2.76-.45-5.51-.9-8.27-1.36Z"/>
      </g>
      <path class="cls-4" d="M181.37,134.95h-89.02c1.35,6.41,4.37,12.22,8.57,16.94,5.09,5.66,11.85,9.75,19.52,11.44,2.59.58,5.26.86,8.02.86,9.18,0,17.59-3.36,24.05-8.91.89-.76,1.99-1.21,3.16-1.21h21.62c1.23,0,1.97,1.35,1.34,2.41-8.1,13.63-21.64,23.99-38.37,27.55-18.26,3.85-36.32-1.18-49.66-12.25l-29.27,30.37c23.12,20.36,55.21,29.9,87.65,23.03,29.13-6.18,52.62-24.3,66.45-48.19,0,0-18.98-27.42-26.29-37.97-1.77-2.55-4.67-4.07-7.77-4.07Z"/>
      <path class="cls-5" d="M140.36,91.4c-3.68-1.27-7.65-1.93-11.76-1.93-16.42,0-30.28,10.7-35.11,25.48h70.19c-2.19-6.73-6.24-12.59-11.56-16.99-3.45-2.88-7.42-5.09-11.76-6.56Z"/>
    </g>
  </g>
  <g>
    <text class="cls-3" transform="translate(283.6 139.58)"><tspan x="0" y="0">eShikhon.com</tspan></text>
    <text class="cls-2" transform="translate(299.24 185.01)"><tspan x="0" y="0">Freelancing &amp; IT Training Institute</tspan></text>
  </g>
</svg>